<?xml version="1.0" standalone="no"?>
<!DOCTYPE svg PUBLIC "-//W3C//DTD SVG 20010904//EN"
 "http://www.w3.org/TR/2001/REC-SVG-20010904/DTD/svg10.dtd">
<svg version="1.0" xmlns="http://www.w3.org/2000/svg"
 width="260.000000pt" height="260.000000pt" viewBox="0 0 260.000000 260.000000"
 preserveAspectRatio="xMidYMid meet">
<metadata>
Created by potrace 1.11, written by Peter Selinger 2001-2013
</metadata>
<g transform="translate(0.000000,260.000000) scale(0.100000,-0.100000)"
fill="#000000" stroke="none">
<path d="M1200 2055 c-73 -21 -127 -54 -177 -108 -142 -154 -132 -374 22 -516
187 -171 479 -112 589 119 27 57 31 76 31 150 0 73 -4 94 -29 148 -75 161
-268 253 -436 207z"/>
<path d="M0 1533 l0 -98 153 -122 c312 -249 560 -498 795 -801 l80 -104 -54
-75 c-61 -85 -150 -227 -183 -291 l-21 -42 520 0 c286 0 520 3 520 7 0 22
-132 235 -238 382 -11 16 -3 30 59 112 228 299 539 609 862 858 l107 83 0 94
c0 52 -2 94 -5 94 -12 0 -192 -95 -315 -165 -325 -187 -702 -468 -909 -679
l-74 -75 -101 96 c-300 285 -675 552 -1063 755 l-133 70 0 -99z"/>
</g>
</svg>
